<svg width="20" height="20" viewBox="0 0 20 20" fill="none" xmlns="http://www.w3.org/2000/svg">
<path d="M18 3C18 2.44772 17.5523 2 17 2H3C2.44772 2 2 2.44772 2 3V17C2 17.5523 2.44772 18 3 18H17C17.5523 18 18 17.5523 18 17V3ZM20 17C20 18.6569 18.6569 20 17 20H3C1.34315 20 0 18.6569 0 17V3C0 1.34315 1.34315 0 3 0H17C18.6569 0 20 1.34315 20 3V17Z" fill="#898989"/>
<path d="M19 6C19.5523 6 20 6.44772 20 7C20 7.55228 19.5523 8 19 8H1C0.447715 8 0 7.55228 0 7C0 6.44772 0.447715 6 1 6H19Z" fill="#898989"/>
<path d="M6 19V7C6 6.44772 6.44772 6 7 6C7.55228 6 8 6.44772 8 7V19C8 19.5523 7.55228 20 7 20C6.44772 20 6 19.5523 6 19Z" fill="#898989"/>
</svg>
