<svg width="24" height="24" viewBox="0 0 24 24" fill="none" xmlns="http://www.w3.org/2000/svg">
<path d="M16 12C16 9.79086 14.2091 8 12 8C9.79086 8 8 9.79086 8 12C8 14.2091 9.79086 16 12 16C14.2091 16 16 14.2091 16 12ZM18 12C18 15.3137 15.3137 18 12 18C8.68629 18 6 15.3137 6 12C6 8.68629 8.68629 6 12 6C15.3137 6 18 8.68629 18 12Z" fill="#898989"/>
<path d="M11 3V1C11 0.447715 11.4477 0 12 0C12.5523 0 13 0.447715 13 1V3C13 3.55228 12.5523 4 12 4C11.4477 4 11 3.55228 11 3Z" fill="#898989"/>
<path d="M11 23V21C11 20.4477 11.4477 20 12 20C12.5523 20 13 20.4477 13 21V23C13 23.5523 12.5523 24 12 24C11.4477 24 11 23.5523 11 23Z" fill="#898989"/>
<path d="M3.51299 3.51297C3.90351 3.12244 4.53652 3.12244 4.92705 3.51297L6.34697 4.93289C6.73749 5.32342 6.73749 5.95643 6.34697 6.34695C5.95645 6.73748 5.32343 6.73748 4.93291 6.34695L3.51299 4.92703C3.12246 4.53651 3.12246 3.90349 3.51299 3.51297Z" fill="#898989"/>
<path d="M17.653 17.653C18.0435 17.2624 18.6765 17.2624 19.0671 17.653L20.487 19.0729C20.8775 19.4634 20.8775 20.0964 20.487 20.487C20.0965 20.8775 19.4634 20.8775 19.0729 20.487L17.653 19.067C17.2625 18.6765 17.2625 18.0435 17.653 17.653Z" fill="#898989"/>
<path d="M3 11C3.55228 11 4 11.4477 4 12C4 12.5523 3.55228 13 3 13H1C0.447715 13 0 12.5523 0 12C0 11.4477 0.447715 11 1 11H3Z" fill="#898989"/>
<path d="M23 11C23.5523 11 24 11.4477 24 12C24 12.5523 23.5523 13 23 13H21C20.4477 13 20 12.5523 20 12C20 11.4477 20.4477 11 21 11H23Z" fill="#898989"/>
<path d="M4.93289 17.653C5.3234 17.2625 5.95642 17.2625 6.34695 17.653C6.73748 18.0435 6.73748 18.6765 6.34695 19.067L4.92703 20.487C4.5365 20.8775 3.90349 20.8775 3.51297 20.487C3.12248 20.0964 3.12246 19.4634 3.51297 19.0729L4.93289 17.653Z" fill="#898989"/>
<path d="M19.0729 3.51297C19.4634 3.12246 20.0964 3.12248 20.487 3.51297C20.8775 3.90349 20.8775 4.53651 20.487 4.92703L19.067 6.34695C18.6765 6.73748 18.0435 6.73748 17.653 6.34695C17.2625 5.95643 17.2625 5.3234 17.653 4.93289L19.0729 3.51297Z" fill="#898989"/>
</svg>
