<svg width="18" height="22" viewBox="0 0 18 22" fill="none" xmlns="http://www.w3.org/2000/svg">
<path d="M0 19V5C0 4.20435 0.316297 3.44152 0.878906 2.87891C1.44152 2.3163 2.20435 2 3 2H5C5.55228 2 6 2.44772 6 3C6 3.55228 5.55228 4 5 4H3C2.73478 4 2.4805 4.10543 2.29297 4.29297C2.10543 4.4805 2 4.73478 2 5V19L2.00488 19.0986C2.02757 19.3276 2.12883 19.5429 2.29297 19.707C2.48051 19.8946 2.73478 20 3 20H15C15.2652 20 15.5195 19.8946 15.707 19.707C15.8946 19.5195 16 19.2652 16 19V5C16 4.73478 15.8946 4.48051 15.707 4.29297C15.5429 4.12883 15.3276 4.02757 15.0986 4.00488L15 4H13C12.4477 4 12 3.55228 12 3C12 2.44772 12.4477 2 13 2H15C15.7956 2 16.5585 2.3163 17.1211 2.87891C17.6837 3.44151 18 4.20435 18 5V19C18 19.7957 17.6837 20.5585 17.1211 21.1211C16.5585 21.6837 15.7957 22 15 22H3C2.20435 22 1.44151 21.6837 0.878906 21.1211C0.316297 20.5585 0 19.7957 0 19Z" fill="#898989"/>
<path d="M6 2V4H12V2H6ZM14 4C14 5.10457 13.1046 6 12 6H6C4.89543 6 4 5.10457 4 4V2C4 0.89543 4.89543 0 6 0H12C13.1046 0 14 0.89543 14 2V4Z" fill="#898989"/>
</svg>
