<svg width="22" height="22" viewBox="0 0 22 22" fill="none" xmlns="http://www.w3.org/2000/svg">
<path d="M20 3C20 2.44772 19.5523 2 19 2H3C2.44772 2 2 2.44772 2 3V7C2 7.55228 2.44772 8 3 8H19C19.5523 8 20 7.55228 20 7V3ZM22 7C22 8.65685 20.6569 10 19 10H3C1.34315 10 0 8.65685 0 7V3C0 1.34315 1.34315 0 3 0H19C20.6569 0 22 1.34315 22 3V7Z" fill="#898989"/>
<path d="M20 15C20 14.4477 19.5523 14 19 14H3C2.44772 14 2 14.4477 2 15V19C2 19.5523 2.44772 20 3 20H19C19.5523 20 20 19.5523 20 19V15ZM22 19C22 20.6569 20.6569 22 19 22H3C1.34315 22 0 20.6569 0 19V15C0 13.3431 1.34315 12 3 12H19C20.6569 12 22 13.3431 22 15V19Z" fill="#898989"/>
<path d="M5.00977 4C5.56205 4 6.00977 4.44772 6.00977 5C6.00977 5.55228 5.56205 6 5.00977 6H5C4.44772 6 4 5.55228 4 5C4 4.44772 4.44772 4 5 4H5.00977Z" fill="#898989"/>
<path d="M5.00977 16C5.56205 16 6.00977 16.4477 6.00977 17C6.00977 17.5523 5.56205 18 5.00977 18H5C4.44772 18 4 17.5523 4 17C4 16.4477 4.44772 16 5 16H5.00977Z" fill="#898989"/>
</svg>
