<svg width="22" height="20" viewBox="0 0 22 20" fill="none" xmlns="http://www.w3.org/2000/svg">
<path d="M20 3C20 2.44772 19.5523 2 19 2H3C2.44772 2 2 2.44772 2 3V13C2 13.5523 2.44772 14 3 14H19C19.5523 14 20 13.5523 20 13V3ZM22 13C22 14.6569 20.6569 16 19 16H3C1.34315 16 0 14.6569 0 13V3C0 1.34315 1.34315 0 3 0H19C20.6569 0 22 1.34315 22 3V13Z" fill="#898989"/>
<path d="M15 18C15.5523 18 16 18.4477 16 19C16 19.5523 15.5523 20 15 20H7C6.44772 20 6 19.5523 6 19C6 18.4477 6.44772 18 7 18H15Z" fill="#898989"/>
<path d="M10 19V15C10 14.4477 10.4477 14 11 14C11.5523 14 12 14.4477 12 15V19C12 19.5523 11.5523 20 11 20C10.4477 20 10 19.5523 10 19Z" fill="#898989"/>
</svg>
