<svg width="15" height="15" viewBox="0 0 15 15" fill="none" xmlns="http://www.w3.org/2000/svg">
<path d="M12.0003 6.75015C12.0003 3.85059 9.64972 1.50003 6.75015 1.50003C3.85059 1.50003 1.50003 3.85059 1.50003 6.75015C1.50003 9.64972 3.85059 12.0003 6.75015 12.0003C9.64972 12.0003 12.0003 9.64972 12.0003 6.75015ZM13.5003 6.75015C13.5003 10.4782 10.4782 13.5003 6.75015 13.5003C3.02215 13.5003 0 10.4782 0 6.75015C0 3.02215 3.02215 0 6.75015 0C10.4782 0 13.5003 3.02215 13.5003 6.75015Z" fill="#666666"/>
<path d="M10.4575 10.4575C10.7504 10.1646 11.2251 10.1646 11.518 10.4575L14.7803 13.7197C15.0732 14.0126 15.0732 14.4874 14.7803 14.7803C14.4874 15.0732 14.0126 15.0732 13.7197 14.7803L10.4575 11.518C10.1646 11.2251 10.1646 10.7504 10.4575 10.4575Z" fill="#666666"/>
</svg>
